<svg data-name="Layer 1" xmlns="http://www.w3.org/2000/svg" viewBox="0 0 395.73 29.2"><path d="M0 23.7v-5.2h8v2c0 1.4.3 2.1 1 2.1s1-.7 1-2.2c0-2-.2-2.3-1.3-2.9l-5.5-3.2C1 13 0 11.8 0 8.5V5.4C0 1.9 1.7 0 4.9 0H13c3.2 0 4.9 1.9 4.9 5.4v3.4h-8v-.4c0-1.3-.4-1.9-1-1.9S8 7.1 8 7.9c0 1.1.5 1.4 1.4 1.9l6.3 3.8c1.7 1.1 2.2 2.8 2.2 6.1v3.2c0 4.2-1.6 6.2-4.9 6.2H4.9c-3.2.1-4.9-1.8-4.9-5.4zM32.7.2h7.9v9.7h2V.2h7.9v28.7h-7.9V16.5h-2V29h-7.9V.2zM67.9.2h12.3l3.5 28.7h-8.1l-.4-6.2h-2.3l-.4 6.2h-8.2zm6.9 16.2L74 6.6l-.8 9.8h1.6zM107.5 19.1c0-1.5-.3-2.1-1.1-2.1h-.9v11.9h-7.9V.2h12.7c3.5 0 5.1 1.8 5.1 6.8 0 3.8-.9 5.7-3.2 6.6 2.4.8 3.3 3.2 3.3 8V29h-8v-9.9zm-2-8.3h.9c.8 0 1.1-.6 1.1-2s-.3-2.1-1.1-2.1h-.9v4.1zM130.3.2h12.9c3.5 0 5 1.7 5 6.2v7.9c0 5.3-1.4 6.9-5 6.9h-5v7.7h-7.9V.2zm7.8 6.5v8.1h1c.8 0 1.1-.6 1.1-2.1V8.8c0-1.4-.3-2.1-1.1-2.1h-1zM162.9.2h12.7v6.6h-4.8V10h4.8v6.6h-4.8v5.9h4.8v6.6h-12.7V.2zM200.2 19.1c0-1.5-.3-2.1-1.1-2.1h-.9v11.9h-7.9V.2h12.8c3.5 0 5.1 1.8 5.1 6.8 0 3.8-.9 5.7-3.3 6.6 2.4.8 3.3 3.2 3.3 8V29h-8v-9.9zm-2-8.3h.9c.8 0 1.1-.6 1.1-2s-.3-2.1-1.1-2.1h-.9v4.1zM244.8.2h7.9v28.7h-7.9V.2zM274.5 13.1v15.8h-7V.2h9.9l2.2 11.9L281.8.2h10v28.7h-7V13.1l-2.9 15.8h-4.4zM309.2.2h12.3l3.5 28.7h-8.1l-.5-6.2h-2.3l-.4 6.2h-8.1zm7 16.2l-.8-9.8-.8 9.8h1.6zM347.8 18.8v-6.4h9.1V29h-4l-.7-2.1c-.5 1.7-1.8 2.3-4.2 2.3h-4.3c-3.5 0-4.8-1.8-4.8-6.9V6.1c0-4.3 1.5-6.1 4.8-6.1h8.2c3.4 0 5 1.6 5 6.1V9h-8v-.9c0-1-.4-1.7-1-1.7s-1 .7-1 2.1v12c0 1.4.3 2.1 1 2.1s1-.6 1-2.1v-1.8h-1.1v.1zM371.6.2h12.7v6.6h-4.8V10h4.8v6.6h-4.8v5.9h4.8v6.6h-12.7V.2zM391.82 1.97a2.26 2.26 0 011.16.19 1.19 1.19 0 01.68 1.06.94.94 0 01-.39.87 1 1 0 01-.58.19 1.15 1.15 0 01.68.39.92.92 0 01.19.68v.87h-.68v-.38a1 1 0 00-.39-1 1.91 1.91 0 00-.87-.1h-.58v1.64h-.74V1.97h1.55zm.77.68a1.93 1.93 0 00-.87-.19h-.68v1.55h.68a1.24 1.24 0 00.68-.1.64.64 0 00.48-.68.59.59 0 00-.28-.58z"/><path d="M395.73 4.2a3.87 3.87 0 11-3.87-3.87 3.87 3.87 0 013.87 3.87zM391.86.84a3.36 3.36 0 103.36 3.36 3.36 3.36 0 00-3.36-3.36z"/></svg>
